<?xml version="1.0" encoding="UTF-8"?>
<svg id="Layer_2" data-name="Layer 2" xmlns="http://www.w3.org/2000/svg" viewBox="0 0 639.55 156.18">
  <defs>
    <style>
      .cls-1 {
        fill: none;
        stroke: #f5c100;
        stroke-miterlimit: 10;
        stroke-width: 13.7px;
      }

      .cls-2 {
        fill: #fff;
        stroke-width: 0px;
      }
    </style>
  </defs>
  <g id="Layer_1-2" data-name="Layer 1">
    <g>
      <g>
        <path class="cls-2" d="M27.7,63.52v23h37.1v21.38H27.7v24.95h41.96v22.19H0V41.33h69.66v22.19H27.7Z"/>
        <path class="cls-2" d="M108.05,152.13c-6.59-2.7-11.85-6.69-15.79-11.99-3.94-5.29-6.02-11.66-6.24-19.12h29.48c.43,4.21,1.89,7.43,4.37,9.64,2.48,2.21,5.72,3.32,9.72,3.32s7.34-.94,9.72-2.83c2.37-1.89,3.56-4.51,3.56-7.86,0-2.81-.95-5.13-2.83-6.97-1.89-1.83-4.21-3.35-6.97-4.54-2.75-1.19-6.67-2.54-11.74-4.05-7.35-2.27-13.34-4.54-17.98-6.8-4.65-2.27-8.64-5.61-11.99-10.04-3.35-4.43-5.02-10.21-5.02-17.33,0-10.58,3.83-18.87,11.5-24.87,7.67-5.99,17.66-8.99,29.97-8.99s22.62,3,30.29,8.99c7.67,5.99,11.77,14.34,12.31,25.03h-29.97c-.22-3.67-1.57-6.56-4.05-8.67-2.49-2.11-5.67-3.16-9.56-3.16-3.35,0-6.05.89-8.1,2.67-2.05,1.78-3.08,4.35-3.08,7.69,0,3.67,1.73,6.54,5.18,8.59,3.46,2.05,8.85,4.27,16.2,6.64,7.34,2.49,13.31,4.86,17.9,7.13,4.59,2.27,8.56,5.56,11.91,9.88,3.35,4.32,5.02,9.88,5.02,16.69s-1.65,12.37-4.94,17.66c-3.3,5.29-8.07,9.5-14.34,12.64-6.26,3.13-13.66,4.7-22.19,4.7s-15.77-1.35-22.35-4.05Z"/>
        <path class="cls-2" d="M261.29,134.96h-42.44l-6.8,20.09h-29l41.15-113.72h32.07l41.15,113.72h-29.32l-6.8-20.09ZM254.17,113.58l-14.09-41.63-13.93,41.63h28.02Z"/>
        <path class="cls-2" d="M393.32,41.33v22.19h-30.13v91.53h-27.7V63.52h-30.13v-22.19h87.96Z"/>
        <path class="cls-2" d="M433.25,148.73c-8.91-4.97-15.98-11.91-21.22-20.82-5.24-8.91-7.86-18.93-7.86-30.05s2.62-21.11,7.86-29.97c5.24-8.85,12.31-15.77,21.22-20.74,8.91-4.97,18.71-7.45,29.4-7.45s20.49,2.49,29.4,7.45c8.91,4.97,15.93,11.88,21.06,20.74,5.13,8.86,7.69,18.85,7.69,29.97s-2.59,21.14-7.78,30.05-12.21,15.85-21.06,20.82c-8.86,4.97-18.63,7.45-29.32,7.45s-20.49-2.48-29.4-7.45ZM484.44,121.84c5.45-6.05,8.18-14.04,8.18-23.98s-2.73-18.06-8.18-24.06c-5.45-5.99-12.72-8.99-21.79-8.99s-16.5,2.97-21.95,8.91c-5.46,5.94-8.18,13.99-8.18,24.14s2.73,18.06,8.18,24.06c5.45,5.99,12.77,8.99,21.95,8.99s16.33-3.02,21.79-9.07Z"/>
        <path class="cls-2" d="M639.55,155.05h-27.7l-46.33-70.14v70.14h-27.7V41.33h27.7l46.33,70.47V41.33h27.7v113.72Z"/>
      </g>
      <line class="cls-1" x1="0" y1="6.85" x2="639.55" y2="6.85"/>
    </g>
  </g>
</svg>